<?xml version="1.0" standalone="no"?>
<!DOCTYPE svg PUBLIC "-//W3C//DTD SVG 20010904//EN"
 "http://www.w3.org/TR/2001/REC-SVG-20010904/DTD/svg10.dtd">
<svg version="1.0" xmlns="http://www.w3.org/2000/svg"
 width="980.000000pt" height="980.000000pt" viewBox="0 0 980.000000 980.000000"
 preserveAspectRatio="xMidYMid meet">
<metadata>
Created by potrace 1.14, written by Peter Selinger 2001-2017
</metadata>
<g transform="translate(0.000000,980.000000) scale(0.100000,-0.100000)"
fill="#000000" stroke="none">
<path d="M1975 7426 c-62 -28 -115 -110 -115 -178 1 -76 64 -157 138 -178 22
-6 166 -10 352 -10 l316 0 61 -182 c34 -101 255 -761 493 -1468 237 -707 489
-1459 561 -1671 l129 -386 -64 -65 c-129 -132 -181 -311 -146 -498 28 -150
150 -306 291 -373 103 -48 164 -61 273 -54 117 7 197 35 289 101 132 94 211
236 224 403 5 63 -6 164 -24 209 -4 12 95 14 667 14 l672 0 -6 -27 c-15 -61
-18 -219 -6 -276 31 -150 151 -303 291 -370 278 -133 597 -24 729 248 148 304
5 638 -325 761 -48 18 -110 19 -1280 24 l-1230 5 -52 180 c-29 99 -53 186 -53
193 0 9 288 12 1408 12 774 1 1437 5 1474 9 84 11 123 38 153 105 24 53 592
1759 689 2069 31 97 56 188 56 202 0 54 -27 95 -77 117 l-48 21 -2252 -5
c-1675 -4 -2255 -3 -2261 5 -4 7 -80 226 -168 487 -141 415 -166 480 -197 516
-66 76 -54 74 -519 74 -323 -1 -420 -4 -443 -14z"/>
</g>
</svg>
